# xmcd
#
# Track frame offsets:
#	150
#	18426
#	32483
#	48681
#	67463
#	81562
#	99369
#	114883
#	135346
#	150574
#	168351
#	184524
#	200995
#	219554
#	235039
#	248896
#	264712
#	280463
#	296604
#	312533
#
# Disc length: 4381 seconds
#
# Revision: 1
# Processed by: cddbd v1.5.1PL0 Copyright (c) Steve Scherf et al.
# Submitted via: audiograbber 1.83.01
#
DISCID=2c111b14
DTITLE=Various Artist - Двойной удар 4. (2001)
DYEAR=1900
DGENRE=
TTITLE0=Витас. - Гуд бай.
TTITLE1=Billy More. - Come On Do It.
TTITLE2=Лето. - Позови.
TTITLE3=Cassandra. - Rien Ne Va Plus.
TTITLE4=Чичерина. - Блюдца.
TTITLE5=Monokini. - Дотянуться до солнца.
TTITLE6=Анжелика Варум. - Будешь рядом ты. (Rmx)
TTITLE7=Gigi D'Agoustino. - L'Amour Toujours.
TTITLE8=Floorfilla. - Anthem #5.
TTITLE9=Андрей Губин. - Убегает лето. (Rmx)
TTITLE10=Modo feat. M. Ferrara. - Eins, Zwei, Polizei 2001.
TTITLE11=Таня Буланова. - Закружилась.
TTITLE12=Antique. - Moi Lipis.
TTITLE13=Michael Chacon. - Pour Un Cafe Pour Un Helao.
TTITLE14=Максим Леонидов. - Осенняя.
TTITLE15=Sonia and Selena. - Dela Que Mueva, Mueva, Mueva.
TTITLE16=Gloria Gaynor. - Will Survive '2001.
TTITLE17=Prezioso feat. Marvin. - Let's Talk About A Man.
TTITLE18=Валерий Меладзе. - Сделай это прямо сейчас.
TTITLE19=Hi-Fi. - Бомбей. (Rmx)
EXTD=
EXTT0=
EXTT1=
EXTT2=
EXTT3=
EXTT4=
EXTT5=
EXTT6=
EXTT7=
EXTT8=
EXTT9=
EXTT10=
EXTT11=
EXTT12=
EXTT13=
EXTT14=
EXTT15=
EXTT16=
EXTT17=
EXTT18=
EXTT19=
PLAYORDER=
